<svg id="visual" viewBox="0 0 960 540" width="960" height="540" xmlns="http://www.w3.org/2000/svg" xmlns:xlink="http://www.w3.org/1999/xlink" version="1.1"><path d="M0 55L20 55C40 55 80 55 120 55.8C160 56.7 200 58.3 240 55.7C280 53 320 46 360 41.5C400 37 440 35 480 36.8C520 38.7 560 44.3 600 47.2C640 50 680 50 720 50.8C760 51.7 800 53.3 840 55C880 56.7 920 58.3 940 59.2L960 60L960 0L940 0C920 0 880 0 840 0C800 0 760 0 720 0C680 0 640 0 600 0C560 0 520 0 480 0C440 0 400 0 360 0C320 0 280 0 240 0C200 0 160 0 120 0C80 0 40 0 20 0L0 0Z" fill="#a792b9"></path><path d="M0 152L20 154.7C40 157.3 80 162.7 120 160C160 157.3 200 146.7 240 145C280 143.3 320 150.7 360 148C400 145.3 440 132.7 480 128.2C520 123.7 560 127.3 600 130.8C640 134.3 680 137.7 720 143.8C760 150 800 159 840 163.5C880 168 920 168 940 168L960 168L960 58L940 57.2C920 56.3 880 54.7 840 53C800 51.3 760 49.7 720 48.8C680 48 640 48 600 45.2C560 42.3 520 36.7 480 34.8C440 33 400 35 360 39.5C320 44 280 51 240 53.7C200 56.3 160 54.7 120 53.8C80 53 40 53 20 53L0 53Z" fill="#c59db6"></path><path d="M0 212L20 212C40 212 80 212 120 207.5C160 203 200 194 240 190.3C280 186.7 320 188.3 360 184.7C400 181 440 172 480 173.8C520 175.7 560 188.3 600 194.7C640 201 680 201 720 202.8C760 204.7 800 208.3 840 212.8C880 217.3 920 222.7 940 225.3L960 228L960 166L940 166C920 166 880 166 840 161.5C800 157 760 148 720 141.8C680 135.7 640 132.3 600 128.8C560 125.3 520 121.7 480 126.2C440 130.7 400 143.3 360 146C320 148.7 280 141.3 240 143C200 144.7 160 155.3 120 158C80 160.7 40 155.3 20 152.7L0 150Z" fill="#d7acb4"></path><path d="M0 298L20 315.2C40 332.3 80 366.7 120 366.7C160 366.7 200 332.3 240 326.8C280 321.3 320 344.7 360 352.8C400 361 440 354 480 355.8C520 357.7 560 368.3 600 358.3C640 348.3 680 317.7 720 312.3C760 307 800 327 840 336C880 345 920 343 940 342L960 341L960 226L940 223.3C920 220.7 880 215.3 840 210.8C800 206.3 760 202.7 720 200.8C680 199 640 199 600 192.7C560 186.3 520 173.7 480 171.8C440 170 400 179 360 182.7C320 186.3 280 184.7 240 188.3C200 192 160 201 120 205.5C80 210 40 210 20 210L0 210Z" fill="#e1beb8"></path><path d="M0 460L20 466.3C40 472.7 80 485.3 120 491.7C160 498 200 498 240 492.5C280 487 320 476 360 472.3C400 468.7 440 472.3 480 476C520 479.7 560 483.3 600 482.5C640 481.7 680 476.3 720 478.2C760 480 800 489 840 494.3C880 499.7 920 501.3 940 502.2L960 503L960 339L940 340C920 341 880 343 840 334C800 325 760 305 720 310.3C680 315.7 640 346.3 600 356.3C560 366.3 520 355.7 480 353.8C440 352 400 359 360 350.8C320 342.7 280 319.3 240 324.8C200 330.3 160 364.7 120 364.7C80 364.7 40 330.3 20 313.2L0 296Z" fill="#e6d1c4"></path><path d="M0 541L20 541C40 541 80 541 120 541C160 541 200 541 240 541C280 541 320 541 360 541C400 541 440 541 480 541C520 541 560 541 600 541C640 541 680 541 720 541C760 541 800 541 840 541C880 541 920 541 940 541L960 541L960 501L940 500.2C920 499.3 880 497.7 840 492.3C800 487 760 478 720 476.2C680 474.3 640 479.7 600 480.5C560 481.3 520 477.7 480 474C440 470.3 400 466.7 360 470.3C320 474 280 485 240 490.5C200 496 160 496 120 489.7C80 483.3 40 470.7 20 464.3L0 458Z" fill="#ebe4d6"></path></svg>