<svg id="visual" viewBox="0 0 960 540" width="960" height="540" xmlns="http://www.w3.org/2000/svg" xmlns:xlink="http://www.w3.org/1999/xlink" version="1.1"><path d="M0 44L14.5 49.5C29 55 58 66 87.2 76C116.3 86 145.7 95 174.8 95.8C204 96.7 233 89.3 262 81.2C291 73 320 64 349 66.7C378 69.3 407 83.7 436.2 84.5C465.3 85.3 494.7 72.7 523.8 80.8C553 89 582 118 611 115.3C640 112.7 669 78.3 698 79.2C727 80 756 116 785.2 131.3C814.3 146.7 843.7 141.3 872.8 140.5C902 139.7 931 143.3 945.5 145.2L960 147L960 0L945.5 0C931 0 902 0 872.8 0C843.7 0 814.3 0 785.2 0C756 0 727 0 698 0C669 0 640 0 611 0C582 0 553 0 523.8 0C494.7 0 465.3 0 436.2 0C407 0 378 0 349 0C320 0 291 0 262 0C233 0 204 0 174.8 0C145.7 0 116.3 0 87.2 0C58 0 29 0 14.5 0L0 0Z" fill="#ebe4d6"></path><path d="M0 50L14.5 55.3C29 60.7 58 71.3 87.2 83.8C116.3 96.3 145.7 110.7 174.8 114.3C204 118 233 111 262 107.5C291 104 320 104 349 108.5C378 113 407 122 436.2 118.3C465.3 114.7 494.7 98.3 523.8 107.3C553 116.3 582 150.7 611 146.2C640 141.7 669 98.3 698 95.5C727 92.7 756 130.3 785.2 149.2C814.3 168 843.7 168 872.8 169C902 170 931 172 945.5 173L960 174L960 145L945.5 143.2C931 141.3 902 137.7 872.8 138.5C843.7 139.3 814.3 144.7 785.2 129.3C756 114 727 78 698 77.2C669 76.3 640 110.7 611 113.3C582 116 553 87 523.8 78.8C494.7 70.7 465.3 83.3 436.2 82.5C407 81.7 378 67.3 349 64.7C320 62 291 71 262 79.2C233 87.3 204 94.7 174.8 93.8C145.7 93 116.3 84 87.2 74C58 64 29 53 14.5 47.5L0 42Z" fill="#e9dccd"></path><path d="M0 87L14.5 99.7C29 112.3 58 137.7 87.2 156.7C116.3 175.7 145.7 188.3 174.8 185.7C204 183 233 165 262 159.5C291 154 320 161 349 162.8C378 164.7 407 161.3 436.2 156.8C465.3 152.3 494.7 146.7 523.8 165.5C553 184.3 582 227.7 611 223.2C640 218.7 669 166.3 698 158.2C727 150 756 186 785.2 198.7C814.3 211.3 843.7 200.7 872.8 205.2C902 209.7 931 229.3 945.5 239.2L960 249L960 172L945.5 171C931 170 902 168 872.8 167C843.7 166 814.3 166 785.2 147.2C756 128.3 727 90.7 698 93.5C669 96.3 640 139.7 611 144.2C582 148.7 553 114.3 523.8 105.3C494.7 96.3 465.3 112.7 436.2 116.3C407 120 378 111 349 106.5C320 102 291 102 262 105.5C233 109 204 116 174.8 112.3C145.7 108.7 116.3 94.3 87.2 81.8C58 69.3 29 58.7 14.5 53.3L0 48Z" fill="#e7d3c5"></path><path d="M0 104L14.5 116.5C29 129 58 154 87.2 177.3C116.3 200.7 145.7 222.3 174.8 219.7C204 217 233 190 262 179.2C291 168.3 320 173.7 349 173.7C378 173.7 407 168.3 436.2 167.5C465.3 166.7 494.7 170.3 523.8 190.2C553 210 582 246 611 238.8C640 231.7 669 181.3 698 179.5C727 177.7 756 224.3 785.2 235C814.3 245.7 843.7 220.3 872.8 222.2C902 224 931 253 945.5 267.5L960 282L960 247L945.5 237.2C931 227.3 902 207.7 872.8 203.2C843.7 198.7 814.3 209.3 785.2 196.7C756 184 727 148 698 156.2C669 164.3 640 216.7 611 221.2C582 225.7 553 182.3 523.8 163.5C494.7 144.7 465.3 150.3 436.2 154.8C407 159.3 378 162.7 349 160.8C320 159 291 152 262 157.5C233 163 204 181 174.8 183.7C145.7 186.3 116.3 173.7 87.2 154.7C58 135.7 29 110.3 14.5 97.7L0 85Z" fill="#e5cabe"></path><path d="M0 314L14.5 313.2C29 312.3 58 310.7 87.2 308.8C116.3 307 145.7 305 174.8 305C204 305 233 307 262 300.8C291 294.7 320 280.3 349 270.3C378 260.3 407 254.7 436.2 264.5C465.3 274.3 494.7 299.7 523.8 314.2C553 328.7 582 332.3 611 319.7C640 307 669 278 698 284.3C727 290.7 756 332.3 785.2 343.2C814.3 354 843.7 334 872.8 326.7C902 319.3 931 324.7 945.5 327.3L960 330L960 280L945.5 265.5C931 251 902 222 872.8 220.2C843.7 218.3 814.3 243.7 785.2 233C756 222.3 727 175.7 698 177.5C669 179.3 640 229.7 611 236.8C582 244 553 208 523.8 188.2C494.7 168.3 465.3 164.7 436.2 165.5C407 166.3 378 171.7 349 171.7C320 171.7 291 166.3 262 177.2C233 188 204 215 174.8 217.7C145.7 220.3 116.3 198.7 87.2 175.3C58 152 29 127 14.5 114.5L0 102Z" fill="#e2c2b9"></path><path d="M0 347L14.5 345.2C29 343.3 58 339.7 87.2 336.8C116.3 334 145.7 332 174.8 331C204 330 233 330 262 324.7C291 319.3 320 308.7 349 301.5C378 294.3 407 290.7 436.2 297C465.3 303.3 494.7 319.7 523.8 334.2C553 348.7 582 361.3 611 347.8C640 334.3 669 294.7 698 295.5C727 296.3 756 337.7 785.2 354.7C814.3 371.7 843.7 364.3 872.8 362.5C902 360.7 931 364.3 945.5 366.2L960 368L960 328L945.5 325.3C931 322.7 902 317.3 872.8 324.7C843.7 332 814.3 352 785.2 341.2C756 330.3 727 288.7 698 282.3C669 276 640 305 611 317.7C582 330.3 553 326.7 523.8 312.2C494.7 297.7 465.3 272.3 436.2 262.5C407 252.7 378 258.3 349 268.3C320 278.3 291 292.7 262 298.8C233 305 204 303 174.8 303C145.7 303 116.3 305 87.2 306.8C58 308.7 29 310.3 14.5 311.2L0 312Z" fill="#dfb9b6"></path><path d="M0 357L14.5 354.3C29 351.7 58 346.3 87.2 346.3C116.3 346.3 145.7 351.7 174.8 350.8C204 350 233 343 262 336.8C291 330.7 320 325.3 349 323.5C378 321.7 407 323.3 436.2 331.3C465.3 339.3 494.7 353.7 523.8 363.5C553 373.3 582 378.7 611 361.7C640 344.7 669 305.3 698 309C727 312.7 756 359.3 785.2 376.3C814.3 393.3 843.7 380.7 872.8 375.3C902 370 931 372 945.5 373L960 374L960 366L945.5 364.2C931 362.3 902 358.7 872.8 360.5C843.7 362.3 814.3 369.7 785.2 352.7C756 335.7 727 294.3 698 293.5C669 292.7 640 332.3 611 345.8C582 359.3 553 346.7 523.8 332.2C494.7 317.7 465.3 301.3 436.2 295C407 288.7 378 292.3 349 299.5C320 306.7 291 317.3 262 322.7C233 328 204 328 174.8 329C145.7 330 116.3 332 87.2 334.8C58 337.7 29 341.3 14.5 343.2L0 345Z" fill="#dbb1b4"></path><path d="M0 363L14.5 362C29 361 58 359 87.2 359.8C116.3 360.7 145.7 364.3 174.8 361.7C204 359 233 350 262 342.8C291 335.7 320 330.3 349 330.3C378 330.3 407 335.7 436.2 348.3C465.3 361 494.7 381 523.8 391C553 401 582 401 611 381.2C640 361.3 669 321.7 698 327C727 332.3 756 382.7 785.2 402.5C814.3 422.3 843.7 411.7 872.8 407.2C902 402.7 931 404.3 945.5 405.2L960 406L960 372L945.5 371C931 370 902 368 872.8 373.3C843.7 378.7 814.3 391.3 785.2 374.3C756 357.3 727 310.7 698 307C669 303.3 640 342.7 611 359.7C582 376.7 553 371.3 523.8 361.5C494.7 351.7 465.3 337.3 436.2 329.3C407 321.3 378 319.7 349 321.5C320 323.3 291 328.7 262 334.8C233 341 204 348 174.8 348.8C145.7 349.7 116.3 344.3 87.2 344.3C58 344.3 29 349.7 14.5 352.3L0 355Z" fill="#d5a9b4"></path><path d="M0 368L14.5 368C29 368 58 368 87.2 372.5C116.3 377 145.7 386 174.8 382.5C204 379 233 363 262 353.2C291 343.3 320 339.7 349 344.2C378 348.7 407 361.3 436.2 377.5C465.3 393.7 494.7 413.3 523.8 421.3C553 429.3 582 425.7 611 402.3C640 379 669 336 698 342.3C727 348.7 756 404.3 785.2 423.2C814.3 442 843.7 424 872.8 419.5C902 415 931 424 945.5 428.5L960 433L960 404L945.5 403.2C931 402.3 902 400.7 872.8 405.2C843.7 409.7 814.3 420.3 785.2 400.5C756 380.7 727 330.3 698 325C669 319.7 640 359.3 611 379.2C582 399 553 399 523.8 389C494.7 379 465.3 359 436.2 346.3C407 333.7 378 328.3 349 328.3C320 328.3 291 333.7 262 340.8C233 348 204 357 174.8 359.7C145.7 362.3 116.3 358.7 87.2 357.8C58 357 29 359 14.5 360L0 361Z" fill="#cda2b5"></path><path d="M0 476L14.5 478.7C29 481.3 58 486.7 87.2 485.8C116.3 485 145.7 478 174.8 474.5C204 471 233 471 262 463.8C291 456.7 320 442.3 349 442.3C378 442.3 407 456.7 436.2 467.3C465.3 478 494.7 485 523.8 484C553 483 582 474 611 458.8C640 443.7 669 422.3 698 425.2C727 428 756 455 785.2 464C814.3 473 843.7 464 872.8 459.5C902 455 931 455 945.5 455L960 455L960 431L945.5 426.5C931 422 902 413 872.8 417.5C843.7 422 814.3 440 785.2 421.2C756 402.3 727 346.7 698 340.3C669 334 640 377 611 400.3C582 423.7 553 427.3 523.8 419.3C494.7 411.3 465.3 391.7 436.2 375.5C407 359.3 378 346.7 349 342.2C320 337.7 291 341.3 262 351.2C233 361 204 377 174.8 380.5C145.7 384 116.3 375 87.2 370.5C58 366 29 366 14.5 366L0 366Z" fill="#c29cb6"></path><path d="M0 487L14.5 494.2C29 501.3 58 515.7 87.2 522C116.3 528.3 145.7 526.7 174.8 519.5C204 512.3 233 499.7 262 493.3C291 487 320 487 349 491.5C378 496 407 505 436.2 508.7C465.3 512.3 494.7 510.7 523.8 509.8C553 509 582 509 611 502.7C640 496.3 669 483.7 698 487.2C727 490.7 756 510.3 785.2 517.5C814.3 524.7 843.7 519.3 872.8 510.3C902 501.3 931 488.7 945.5 482.3L960 476L960 453L945.5 453C931 453 902 453 872.8 457.5C843.7 462 814.3 471 785.2 462C756 453 727 426 698 423.2C669 420.3 640 441.7 611 456.8C582 472 553 481 523.8 482C494.7 483 465.3 476 436.2 465.3C407 454.7 378 440.3 349 440.3C320 440.3 291 454.7 262 461.8C233 469 204 469 174.8 472.5C145.7 476 116.3 483 87.2 483.8C58 484.7 29 479.3 14.5 476.7L0 474Z" fill="#b697b8"></path><path d="M0 541L14.5 541C29 541 58 541 87.2 541C116.3 541 145.7 541 174.8 541C204 541 233 541 262 541C291 541 320 541 349 541C378 541 407 541 436.2 541C465.3 541 494.7 541 523.8 541C553 541 582 541 611 541C640 541 669 541 698 541C727 541 756 541 785.2 541C814.3 541 843.7 541 872.8 541C902 541 931 541 945.5 541L960 541L960 474L945.5 480.3C931 486.7 902 499.3 872.8 508.3C843.7 517.3 814.3 522.7 785.2 515.5C756 508.3 727 488.7 698 485.2C669 481.7 640 494.3 611 500.7C582 507 553 507 523.8 507.8C494.7 508.7 465.3 510.3 436.2 506.7C407 503 378 494 349 489.5C320 485 291 485 262 491.3C233 497.7 204 510.3 174.8 517.5C145.7 524.7 116.3 526.3 87.2 520C58 513.7 29 499.3 14.5 492.2L0 485Z" fill="#a792b9"></path></svg>